####
#
# OBJ File Generated by Meshlab
#
####
# Object 2midph_skin.obj
#
# Vertices: 40
# Faces: 76
#
####
vn 0.213857 -0.294525 0.931408
v 0.004198 -0.026026 0.006765
vn 0.111683 0.554261 0.824816
v 0.001673 -0.005055 0.004131
vn -0.066407 -0.326845 0.942742
v 0.002514 -0.026220 0.006833
vn -0.168581 0.521947 0.836153
v -0.000010 -0.005249 0.004199
vn -0.335171 -0.368703 0.867017
v 0.000901 -0.026472 0.006378
vn -0.437344 0.480082 0.760429
v -0.001623 -0.005501 0.003744
vn -0.566141 -0.416020 0.711626
v -0.000485 -0.026756 0.005445
vn -0.668314 0.432765 0.605037
v -0.003009 -0.005785 0.002812
vn -0.736673 -0.464157 0.491803
v -0.001509 -0.027045 0.004126
vn -0.838848 0.384636 0.385214
v -0.004033 -0.006074 0.001493
vn -0.830099 -0.508398 0.229058
v -0.002070 -0.027310 0.002548
vn -0.932273 0.340395 0.122469
v -0.004594 -0.006339 -0.000086
vn -0.837270 -0.544416 -0.050892
v -0.002113 -0.027527 0.000867
vn -0.939444 0.304376 -0.157482
v -0.004638 -0.006556 -0.001767
vn -0.757487 -0.568683 -0.320644
v -0.001634 -0.027672 -0.000753
vn -0.859660 0.280102 -0.427232
v -0.004158 -0.006701 -0.003386
vn -0.598541 -0.578830 -0.553809
v -0.000680 -0.027733 -0.002152
vn -0.700714 0.269955 -0.660397
v -0.003205 -0.006762 -0.004785
vn -0.376015 -0.573862 -0.727526
v 0.000655 -0.027703 -0.003195
vn -0.478189 0.274930 -0.834115
v -0.001869 -0.006732 -0.005828
vn -0.111683 -0.554261 -0.824816
v 0.002243 -0.027586 -0.003779
vn -0.213857 0.294532 -0.931405
v -0.000281 -0.006615 -0.006413
vn 0.168581 -0.521947 -0.836153
v 0.003926 -0.027392 -0.003847
vn 0.066407 0.326845 -0.942742
v 0.001402 -0.006421 -0.006481
vn 0.437344 -0.480082 -0.760429
v 0.005540 -0.027140 -0.003392
vn 0.335171 0.368703 -0.867017
v 0.003015 -0.006169 -0.006026
vn 0.668314 -0.432765 -0.605037
v 0.006926 -0.026856 -0.002460
vn 0.566141 0.416020 -0.711626
v 0.004401 -0.005885 -0.005093
vn 0.838848 -0.384636 -0.385214
v 0.007950 -0.026567 -0.001141
vn 0.736673 0.464157 -0.491803
v 0.005425 -0.005596 -0.003774
vn 0.932273 -0.340395 -0.122469
v 0.008511 -0.026302 0.000438
vn 0.830099 0.508398 -0.229058
v 0.005986 -0.005331 -0.002196
vn 0.939444 -0.304376 0.157482
v 0.008554 -0.026085 0.002119
vn 0.837270 0.544416 0.050892
v 0.006030 -0.005114 -0.000515
vn 0.859660 -0.280102 0.427232
v 0.008074 -0.025940 0.003738
vn 0.757487 0.568683 0.320644
v 0.005550 -0.004969 0.001105
vn 0.700714 -0.269955 0.660397
v 0.007121 -0.025879 0.005137
vn 0.598541 0.578830 0.553809
v 0.004596 -0.004908 0.002504
vn 0.478189 -0.274930 0.834115
v 0.005785 -0.025909 0.006181
vn 0.376015 0.573862 0.727526
v 0.003261 -0.004938 0.003547
# 40 vertices, 0 vertices normals

f 1//1 2//2 4//4
f 1//1 4//4 3//3
f 3//3 4//4 6//6
f 3//3 6//6 5//5
f 5//5 6//6 8//8
f 5//5 8//8 7//7
f 7//7 8//8 10//10
f 7//7 10//10 9//9
f 9//9 10//10 12//12
f 9//9 12//12 11//11
f 11//11 12//12 14//14
f 11//11 14//14 13//13
f 13//13 14//14 16//16
f 13//13 16//16 15//15
f 15//15 16//16 18//18
f 15//15 18//18 17//17
f 17//17 18//18 20//20
f 17//17 20//20 19//19
f 19//19 20//20 22//22
f 19//19 22//22 21//21
f 21//21 22//22 24//24
f 21//21 24//24 23//23
f 23//23 24//24 26//26
f 23//23 26//26 25//25
f 25//25 26//26 28//28
f 25//25 28//28 27//27
f 27//27 28//28 30//30
f 27//27 30//30 29//29
f 29//29 30//30 32//32
f 29//29 32//32 31//31
f 31//31 32//32 34//34
f 31//31 34//34 33//33
f 33//33 34//34 36//36
f 33//33 36//36 35//35
f 35//35 36//36 38//38
f 35//35 38//38 37//37
f 37//37 38//38 40//40
f 37//37 40//40 39//39
f 39//39 40//40 2//2
f 39//39 2//2 1//1
f 1//1 3//3 5//5
f 1//1 5//5 7//7
f 1//1 7//7 9//9
f 1//1 9//9 11//11
f 1//1 11//11 13//13
f 1//1 13//13 15//15
f 1//1 15//15 17//17
f 1//1 17//17 19//19
f 1//1 19//19 21//21
f 1//1 21//21 23//23
f 1//1 23//23 25//25
f 1//1 25//25 27//27
f 1//1 27//27 29//29
f 1//1 29//29 31//31
f 1//1 31//31 33//33
f 1//1 33//33 35//35
f 1//1 35//35 37//37
f 1//1 37//37 39//39
f 40//40 38//38 36//36
f 40//40 36//36 34//34
f 40//40 34//34 32//32
f 40//40 32//32 30//30
f 40//40 30//30 28//28
f 40//40 28//28 26//26
f 40//40 26//26 24//24
f 40//40 24//24 22//22
f 40//40 22//22 20//20
f 40//40 20//20 18//18
f 40//40 18//18 16//16
f 40//40 16//16 14//14
f 40//40 14//14 12//12
f 40//40 12//12 10//10
f 40//40 10//10 8//8
f 40//40 8//8 6//6
f 40//40 6//6 4//4
f 40//40 4//4 2//2
# 76 faces, 0 coords texture

# End of File
