####
#
# OBJ File Generated by Meshlab
#
####
# Object 3midph_skin.obj
#
# Vertices: 40
# Faces: 76
#
####
vn 0.038260 -0.532376 -0.845643
v 0.001412 -0.031332 -0.003893
vn -0.007576 0.491860 -0.870642
v 0.000199 -0.004227 -0.004554
vn 0.302493 -0.519415 -0.799191
v 0.003111 -0.031249 -0.003593
vn 0.256658 0.504816 -0.824189
v 0.001898 -0.004144 -0.004255
vn 0.539365 -0.505744 -0.673282
v 0.004634 -0.031161 -0.002784
vn 0.493529 0.518491 -0.698280
v 0.003421 -0.004056 -0.003445
vn 0.725690 -0.492694 -0.480236
v 0.005832 -0.031077 -0.001543
vn 0.679855 0.531541 -0.505235
v 0.004619 -0.003972 -0.002204
vn 0.843215 -0.481544 -0.238966
v 0.006587 -0.031005 0.000009
vn 0.797379 0.542687 -0.263964
v 0.005374 -0.003900 -0.000653
vn 0.880441 -0.473391 0.026916
v 0.006828 -0.030953 0.001719
vn 0.834606 0.550844 0.001917
v 0.005615 -0.003848 0.001057
vn 0.833733 -0.469024 0.291386
v 0.006526 -0.030925 0.003419
vn 0.787898 0.555207 0.266388
v 0.005313 -0.003820 0.002758
vn 0.707654 -0.468880 0.528562
v 0.005716 -0.030924 0.004945
vn 0.661819 0.555355 0.503563
v 0.004503 -0.003819 0.004283
vn 0.514541 -0.472966 0.715228
v 0.004474 -0.030950 0.006145
vn 0.468706 0.551269 0.690230
v 0.003261 -0.003845 0.005483
vn 0.273311 -0.480882 0.833099
v 0.002923 -0.031001 0.006902
vn 0.227476 0.543349 0.808101
v 0.001710 -0.003896 0.006241
vn 0.007576 -0.491860 0.870642
v 0.001214 -0.031071 0.007145
vn -0.038260 0.532376 0.845643
v 0.000001 -0.003967 0.006483
vn -0.256658 -0.504816 0.824189
v -0.000485 -0.031155 0.006845
vn -0.302493 0.519415 0.799191
v -0.001698 -0.004050 0.006184
vn -0.493529 -0.518491 0.698280
v -0.002008 -0.031243 0.006036
vn -0.539365 0.505744 0.673282
v -0.003221 -0.004138 0.005374
vn -0.679855 -0.531541 0.505235
v -0.003206 -0.031327 0.004795
vn -0.725690 0.492694 0.480236
v -0.004419 -0.004222 0.004133
vn -0.797379 -0.542687 0.263964
v -0.003961 -0.031398 0.003243
vn -0.843215 0.481544 0.238966
v -0.005174 -0.004293 0.002582
vn -0.834606 -0.550844 -0.001917
v -0.004202 -0.031451 0.001533
vn -0.880441 0.473391 -0.026916
v -0.005415 -0.004346 0.000872
vn -0.787898 -0.555207 -0.266388
v -0.003901 -0.031479 -0.000167
vn -0.833733 0.469024 -0.291386
v -0.005113 -0.004374 -0.000829
vn -0.661819 -0.555355 -0.503563
v -0.003090 -0.031480 -0.001693
vn -0.707654 0.468880 -0.528562
v -0.004303 -0.004375 -0.002354
vn -0.468706 -0.551269 -0.690230
v -0.001849 -0.031453 -0.002893
vn -0.514541 0.472966 -0.715228
v -0.003061 -0.004349 -0.003554
vn -0.227476 -0.543349 -0.808101
v -0.000297 -0.031403 -0.003650
vn -0.273311 0.480882 -0.833099
v -0.001510 -0.004298 -0.004312
# 40 vertices, 0 vertices normals

f 1//1 2//2 4//4
f 1//1 4//4 3//3
f 3//3 4//4 6//6
f 3//3 6//6 5//5
f 5//5 6//6 8//8
f 5//5 8//8 7//7
f 7//7 8//8 10//10
f 7//7 10//10 9//9
f 9//9 10//10 12//12
f 9//9 12//12 11//11
f 11//11 12//12 14//14
f 11//11 14//14 13//13
f 13//13 14//14 16//16
f 13//13 16//16 15//15
f 15//15 16//16 18//18
f 15//15 18//18 17//17
f 17//17 18//18 20//20
f 17//17 20//20 19//19
f 19//19 20//20 22//22
f 19//19 22//22 21//21
f 21//21 22//22 24//24
f 21//21 24//24 23//23
f 23//23 24//24 26//26
f 23//23 26//26 25//25
f 25//25 26//26 28//28
f 25//25 28//28 27//27
f 27//27 28//28 30//30
f 27//27 30//30 29//29
f 29//29 30//30 32//32
f 29//29 32//32 31//31
f 31//31 32//32 34//34
f 31//31 34//34 33//33
f 33//33 34//34 36//36
f 33//33 36//36 35//35
f 35//35 36//36 38//38
f 35//35 38//38 37//37
f 37//37 38//38 40//40
f 37//37 40//40 39//39
f 39//39 40//40 2//2
f 39//39 2//2 1//1
f 1//1 3//3 5//5
f 1//1 5//5 7//7
f 1//1 7//7 9//9
f 1//1 9//9 11//11
f 1//1 11//11 13//13
f 1//1 13//13 15//15
f 1//1 15//15 17//17
f 1//1 17//17 19//19
f 1//1 19//19 21//21
f 1//1 21//21 23//23
f 1//1 23//23 25//25
f 1//1 25//25 27//27
f 1//1 27//27 29//29
f 1//1 29//29 31//31
f 1//1 31//31 33//33
f 1//1 33//33 35//35
f 1//1 35//35 37//37
f 1//1 37//37 39//39
f 40//40 38//38 36//36
f 40//40 36//36 34//34
f 40//40 34//34 32//32
f 40//40 32//32 30//30
f 40//40 30//30 28//28
f 40//40 28//28 26//26
f 40//40 26//26 24//24
f 40//40 24//24 22//22
f 40//40 22//22 20//20
f 40//40 20//20 18//18
f 40//40 18//18 16//16
f 40//40 16//16 14//14
f 40//40 14//14 12//12
f 40//40 12//12 10//10
f 40//40 10//10 8//8
f 40//40 8//8 6//6
f 40//40 6//6 4//4
f 40//40 4//4 2//2
# 76 faces, 0 coords texture

# End of File
