####
#
# OBJ File Generated by Meshlab
#
####
# Object 5proxph_skin.obj
#
# Vertices: 40
# Faces: 76
#
####
vn -0.179659 -0.582438 -0.792773
v -0.014491 -0.035799 -0.001882
vn 0.215386 0.396833 -0.892263
v -0.002788 -0.006789 -0.004829
vn 0.062532 -0.674353 -0.735757
v -0.012747 -0.036461 -0.001471
vn 0.457577 0.304924 -0.835251
v -0.001045 -0.007451 -0.004419
vn 0.279275 -0.748181 -0.601856
v -0.011187 -0.036992 -0.000508
vn 0.674322 0.231093 -0.701345
v 0.000515 -0.007982 -0.003456
vn 0.449347 -0.796705 -0.404164
v -0.009962 -0.037341 0.000916
vn 0.844394 0.182570 -0.503654
v 0.001740 -0.008332 -0.002032
vn 0.556096 -0.815168 -0.162041
v -0.009195 -0.037474 0.002658
vn 0.951142 0.164104 -0.261530
v 0.002508 -0.008464 -0.000289
vn 0.589074 -0.801767 0.100803
v -0.008957 -0.037378 0.004550
vn 0.984119 0.177504 0.001314
v 0.002746 -0.008368 0.001603
vn 0.545057 -0.757815 0.358650
v -0.009274 -0.037061 0.006407
vn 0.940103 0.221457 0.259160
v 0.002429 -0.008051 0.003459
vn 0.428347 -0.687610 0.586269
v -0.010114 -0.036556 0.008045
vn 0.823394 0.291665 0.486779
v 0.001589 -0.007546 0.005098
vn 0.250372 -0.598024 0.761368
v -0.011395 -0.035911 0.009306
vn 0.645419 0.381251 0.661878
v 0.000307 -0.006901 0.006359
vn 0.028553 -0.497827 0.866806
v -0.012992 -0.035190 0.010064
vn 0.423603 0.481448 0.767312
v -0.001289 -0.006180 0.007117
vn -0.215386 -0.396833 0.892263
v -0.014748 -0.034463 0.010248
vn 0.179659 0.582438 0.792773
v -0.003045 -0.005453 0.007300
vn -0.457577 -0.304924 0.835251
v -0.016492 -0.033801 0.009837
vn -0.062531 0.674348 0.735761
v -0.004789 -0.004791 0.006890
vn -0.674322 -0.231093 0.701345
v -0.018052 -0.033270 0.008874
vn -0.279275 0.748181 0.601856
v -0.006349 -0.004260 0.005927
vn -0.844394 -0.182570 0.503654
v -0.019277 -0.032920 0.007450
vn -0.449347 0.796705 0.404164
v -0.007574 -0.003910 0.004503
vn -0.951142 -0.164104 0.261530
v -0.020044 -0.032788 0.005707
vn -0.556096 0.815168 0.162041
v -0.008341 -0.003778 0.002760
vn -0.984119 -0.177504 -0.001314
v -0.020282 -0.032884 0.003815
vn -0.589074 0.801767 -0.100803
v -0.008579 -0.003874 0.000868
vn -0.940103 -0.221457 -0.259160
v -0.019965 -0.033200 0.001959
vn -0.545057 0.757815 -0.358650
v -0.008262 -0.004191 -0.000988
vn -0.823394 -0.291665 -0.486779
v -0.019125 -0.033705 0.000321
vn -0.428347 0.687610 -0.586269
v -0.007423 -0.004696 -0.002627
vn -0.645419 -0.381251 -0.661878
v -0.017843 -0.034351 -0.000940
vn -0.250372 0.598024 -0.761368
v -0.006141 -0.005341 -0.003888
vn -0.423599 -0.481445 -0.767316
v -0.016247 -0.035072 -0.001699
vn -0.028553 0.497827 -0.866806
v -0.004544 -0.006062 -0.004646
# 40 vertices, 0 vertices normals

f 1//1 2//2 4//4
f 1//1 4//4 3//3
f 3//3 4//4 6//6
f 3//3 6//6 5//5
f 5//5 6//6 8//8
f 5//5 8//8 7//7
f 7//7 8//8 10//10
f 7//7 10//10 9//9
f 9//9 10//10 12//12
f 9//9 12//12 11//11
f 11//11 12//12 14//14
f 11//11 14//14 13//13
f 13//13 14//14 16//16
f 13//13 16//16 15//15
f 15//15 16//16 18//18
f 15//15 18//18 17//17
f 17//17 18//18 20//20
f 17//17 20//20 19//19
f 19//19 20//20 22//22
f 19//19 22//22 21//21
f 21//21 22//22 24//24
f 21//21 24//24 23//23
f 23//23 24//24 26//26
f 23//23 26//26 25//25
f 25//25 26//26 28//28
f 25//25 28//28 27//27
f 27//27 28//28 30//30
f 27//27 30//30 29//29
f 29//29 30//30 32//32
f 29//29 32//32 31//31
f 31//31 32//32 34//34
f 31//31 34//34 33//33
f 33//33 34//34 36//36
f 33//33 36//36 35//35
f 35//35 36//36 38//38
f 35//35 38//38 37//37
f 37//37 38//38 40//40
f 37//37 40//40 39//39
f 39//39 40//40 2//2
f 39//39 2//2 1//1
f 1//1 3//3 5//5
f 1//1 5//5 7//7
f 1//1 7//7 9//9
f 1//1 9//9 11//11
f 1//1 11//11 13//13
f 1//1 13//13 15//15
f 1//1 15//15 17//17
f 1//1 17//17 19//19
f 1//1 19//19 21//21
f 1//1 21//21 23//23
f 1//1 23//23 25//25
f 1//1 25//25 27//27
f 1//1 27//27 29//29
f 1//1 29//29 31//31
f 1//1 31//31 33//33
f 1//1 33//33 35//35
f 1//1 35//35 37//37
f 1//1 37//37 39//39
f 40//40 38//38 36//36
f 40//40 36//36 34//34
f 40//40 34//34 32//32
f 40//40 32//32 30//30
f 40//40 30//30 28//28
f 40//40 28//28 26//26
f 40//40 26//26 24//24
f 40//40 24//24 22//22
f 40//40 22//22 20//20
f 40//40 20//20 18//18
f 40//40 18//18 16//16
f 40//40 16//16 14//14
f 40//40 14//14 12//12
f 40//40 12//12 10//10
f 40//40 10//10 8//8
f 40//40 8//8 6//6
f 40//40 6//6 4//4
f 40//40 4//4 2//2
# 76 faces, 0 coords texture

# End of File
